<svg id="Layer_35" enable-background="new 0 0 64 64" height="512" viewBox="0 0 64 64" width="512" xmlns="http://www.w3.org/2000/svg"><g fill="#f0bc5e"><path d="m41.008 45.049.992 5.951-4 3 2 3-5 5h-2l5.933-17.8z"/><path d="m22.992 45.049-.992 5.951 4 3-2 3 5 5h2l-5.933-17.8z"/><path d="m42.844 4.594c-2.898-2.318-6.536-3.594-10.247-3.594h-3.421c-6.09 0-11.677 3.067-14.946 8.204l-2.6 4.086 1.046.695c1.455.97 2.324 2.594 2.324 4.344v8.671h1.141c-.083-.321-.141-.653-.141-1 0-2.209 1.791-4 4-4v-8h.076c3.247 0 6.457.681 9.424 2s6.178 2 9.424 2h5.076v4c2.209 0 4 1.791 4 4 0 .347-.058.679-.141 1h1.141v-9.597c0-5.009-2.244-9.678-6.156-12.809z"/></g><path d="m49.123 47.288-10.259-4.197c-1.133-.463-1.864-1.553-1.864-2.777v-.718c3.077-2.126 5.427-5.126 6.759-8.596h.241c2.757 0 5-2.243 5-5 0-2.414-1.721-4.434-4-4.899v-4.101h-6.075c-3.127 0-6.161-.644-9.019-1.914-3.115-1.384-6.423-2.086-9.906-2.086h-1v8.101c-2.279.465-4 2.484-4 4.899 0 2.757 2.243 5 5 5h.241c1.332 3.471 3.682 6.47 6.759 8.596v.718c0 1.224-.731 2.313-1.864 2.776l-10.259 4.197c-6 2.455-9.877 8.231-9.877 14.713v1h54v-1c0-6.482-3.877-12.258-9.877-14.712zm-17.123 3.231 5.272-6.025c.137.089.281.169.428.246l-5.42 16.26h-.56l-5.42-16.26c.147-.076.291-.157.428-.246zm15-24.519c0 1.513-1.129 2.754-2.586 2.958.379-1.482.586-3.025.586-4.607v-1.166c1.161.413 2 1.513 2 2.815zm-17.906-9.086c3.115 1.384 6.423 2.086 9.831 2.086h4.075v1h-6c-1.474 0-2.75.81-3.444 2h-3.112c-.694-1.19-1.97-2-3.444-2h-6v-4.981c2.8.115 5.519.751 8.094 1.895zm11.906 5.086v2c0 1.103-.897 2-2 2h-2c-1.103 0-2-.897-2-2s.897-2 2-2zm-12 2c0 1.103-.897 2-2 2h-2c-1.103 0-2-.897-2-2v-2h4c1.103 0 2 .897 2 2zm-12 2c0-1.302.839-2.402 2-2.816v1.166c0 1.582.207 3.126.586 4.608-1.457-.204-2.586-1.445-2.586-2.958zm4-1.649v-.351c0 2.206 1.794 4 4 4h2c2.206 0 4-1.794 4-4h2c0 2.206 1.794 4 4 4h2c2.206 0 4-1.794 4-4v.351c0 7.023-4.406 13.247-11 15.592-6.594-2.345-11-8.569-11-15.592zm10.684 17.597.316.106.316-.105c.947-.316 1.855-.702 2.719-1.152.08.835.353 1.623.804 2.297l-3.839 4.387-3.84-4.388c.45-.674.724-1.462.804-2.297.864.45 1.773.837 2.72 1.152zm-16.049 7.192 8.821-3.609 5.157 15.469h-12.613v-6h-2v6h-7.965c.373-5.255 3.665-9.842 8.6-11.86zm33.365 11.86v-6h-2v6h-12.613l5.157-15.47 8.821 3.609c4.935 2.019 8.227 6.605 8.6 11.86h-7.965z"/><path d="m36 32h-2c0 1.103-.897 2-2 2s-2-.897-2-2h-2c0 2.206 1.794 4 4 4s4-1.794 4-4z"/><path d="m39.095 9.278c.821.658 1.533 1.427 2.116 2.284l1.654-1.125c-.695-1.022-1.543-1.937-2.52-2.72-2.192-1.752-4.944-2.717-7.748-2.717h-1.597v2h1.597c2.352 0 4.661.81 6.498 2.278z"/><path d="m42.77 15.21 1.955-.42c-.16-.745-.389-1.478-.68-2.175l-1.846.77c.244.585.436 1.199.571 1.825z"/></svg>