<?xml version="1.0" encoding="iso-8859-1"?>
<!-- Generator: Adobe Illustrator 19.0.0, SVG Export Plug-In . SVG Version: 6.00 Build 0)  -->
<svg version="1.1" id="Capa_1" xmlns="http://www.w3.org/2000/svg" xmlns:xlink="http://www.w3.org/1999/xlink" x="0px" y="0px"
	 viewBox="0 0 512 512" style="enable-background:new 0 0 512 512;" xml:space="preserve">
<g>
	<g>
		<path d="M460.8,145.067H51.2c-4.71,0-8.533,3.823-8.533,8.533v162.133c0,4.71,3.823,8.533,8.533,8.533h409.6
			c4.71,0,8.533-3.823,8.533-8.533V153.6C469.333,148.89,465.51,145.067,460.8,145.067z M452.267,307.2H59.733V162.133h392.533
			V307.2z"/>
	</g>
</g>
<g>
	<g>
		<path d="M219.366,232.9c-3.328-3.337-8.738-3.337-12.066,0l-34.133,34.133c-3.337,3.336-3.337,8.73,0,12.066
			c1.664,1.664,3.849,2.5,6.033,2.5c2.185,0,4.369-0.836,6.033-2.5l34.133-34.133C222.703,241.63,222.703,236.237,219.366,232.9z"/>
	</g>
</g>
<g>
	<g>
		<path d="M253.5,267.034L219.366,232.9c-3.328-3.337-8.738-3.337-12.066,0c-3.337,3.337-3.337,8.73,0,12.066l34.133,34.133
			c1.664,1.664,3.849,2.5,6.033,2.5c2.185,0,4.369-0.836,6.033-2.5C256.836,275.763,256.836,270.37,253.5,267.034z"/>
	</g>
</g>
<g>
	<g>
		<path d="M270.566,215.834c-3.328-3.337-8.738-3.337-12.066,0l-34.133,34.133c-3.337,3.336-3.337,8.73,0,12.066
			c1.664,1.664,3.849,2.5,6.033,2.5c2.185,0,4.369-0.836,6.033-2.5l34.133-34.133C273.903,224.563,273.903,219.17,270.566,215.834z"
			/>
	</g>
</g>
<g>
	<g>
		<path d="M304.7,249.967l-34.133-34.133c-3.328-3.337-8.738-3.337-12.066,0c-3.336,3.337-3.336,8.73,0,12.066l34.133,34.133
			c1.664,1.664,3.849,2.5,6.033,2.5c2.185,0,4.369-0.836,6.033-2.5C308.036,258.697,308.036,253.303,304.7,249.967z"/>
	</g>
</g>
<g>
	<g>
		<path d="M473.6,0H38.4C17.229,0,0,17.229,0,38.4v435.2C0,494.771,17.229,512,38.4,512h435.2c21.171,0,38.4-17.229,38.4-38.4V38.4
			C512,17.229,494.771,0,473.6,0z M494.933,473.6c0,11.759-9.566,21.333-21.333,21.333H38.4c-11.759,0-21.333-9.574-21.333-21.333
			V38.4c0-11.759,9.574-21.333,21.333-21.333h435.2c11.759,0,21.333,9.574,21.333,21.333V473.6z"/>
	</g>
</g>
<g>
	<g>
		<path d="M76.8,34.133H42.667c-4.71,0-8.533,3.823-8.533,8.533V76.8c0,4.71,3.823,8.533,8.533,8.533H76.8
			c4.71,0,8.533-3.823,8.533-8.533V42.667C85.333,37.956,81.51,34.133,76.8,34.133z M68.267,68.267H51.2V51.2h17.067V68.267z"/>
	</g>
</g>
<g>
	<g>
		<path d="M145.067,34.133h-34.133c-4.71,0-8.533,3.823-8.533,8.533V76.8c0,4.71,3.823,8.533,8.533,8.533h34.133
			c4.71,0,8.533-3.823,8.533-8.533V42.667C153.6,37.956,149.777,34.133,145.067,34.133z M136.533,68.267h-17.067V51.2h17.067V68.267
			z"/>
	</g>
</g>
<g>
	<g>
		<path d="M213.333,34.133H179.2c-4.71,0-8.533,3.823-8.533,8.533V76.8c0,4.71,3.823,8.533,8.533,8.533h34.133
			c4.71,0,8.533-3.823,8.533-8.533V42.667C221.867,37.956,218.044,34.133,213.333,34.133z M204.8,68.267h-17.067V51.2H204.8V68.267z
			"/>
	</g>
</g>
<g>
	<g>
		<path d="M341.137,179.2h-16.674c-9.523,0-17.263,7.748-17.263,17.263v16.674c0,9.515,7.74,17.263,17.263,17.263h16.674
			c9.523,0,17.263-7.748,17.263-17.263v-16.674C358.4,186.948,350.66,179.2,341.137,179.2z M341.333,213.137
			c0,0.111-0.085,0.196-0.196,0.196l-16.87-0.196l0.196-16.87l16.87,0.196V213.137z"/>
	</g>
</g>
<g>
	<g>
		<path d="M473.6,0H38.4C17.229,0,0,17.229,0,38.4v72.533c0,4.71,3.823,8.533,8.533,8.533h494.933c4.71,0,8.533-3.823,8.533-8.533
			V38.4C512,17.229,494.771,0,473.6,0z M494.933,102.4H17.067v-64c0-11.759,9.574-21.333,21.333-21.333h435.2
			c11.759,0,21.333,9.574,21.333,21.333V102.4z"/>
	</g>
</g>
<g>
	<g>
		<path d="M153.6,349.867H51.2c-4.71,0-8.533,3.823-8.533,8.533v102.4c0,4.71,3.823,8.533,8.533,8.533h102.4
			c4.71,0,8.533-3.823,8.533-8.533V358.4C162.133,353.69,158.31,349.867,153.6,349.867z M145.067,452.267H59.733v-85.333h85.333
			V452.267z"/>
	</g>
</g>
<g>
	<g>
		<path d="M460.8,349.867H358.4c-4.71,0-8.533,3.823-8.533,8.533v102.4c0,4.71,3.823,8.533,8.533,8.533h102.4
			c4.71,0,8.533-3.823,8.533-8.533V358.4C469.333,353.69,465.51,349.867,460.8,349.867z M452.267,452.267h-85.333v-85.333h85.333
			V452.267z"/>
	</g>
</g>
<g>
	<g>
		<path d="M307.2,349.867H204.8c-4.71,0-8.533,3.823-8.533,8.533v102.4c0,4.71,3.823,8.533,8.533,8.533h102.4
			c4.71,0,8.533-3.823,8.533-8.533V358.4C315.733,353.69,311.91,349.867,307.2,349.867z M298.667,452.267h-85.333v-85.333h85.333
			V452.267z"/>
	</g>
</g>
<g>
	<g>
		<path d="M125.5,386.5c-3.328-3.337-8.738-3.337-12.066,0L79.3,420.634c-3.337,3.337-3.337,8.73,0,12.066
			c1.664,1.664,3.849,2.5,6.033,2.5c2.185,0,4.369-0.836,6.033-2.5l34.133-34.133C128.836,395.23,128.836,389.837,125.5,386.5z"/>
	</g>
</g>
<g>
	<g>
		<path d="M125.5,420.634L91.366,386.5c-3.328-3.337-8.738-3.337-12.066,0c-3.337,3.337-3.337,8.73,0,12.066l34.133,34.133
			c1.664,1.664,3.849,2.5,6.033,2.5s4.369-0.836,6.033-2.5C128.836,429.363,128.836,423.97,125.5,420.634z"/>
	</g>
</g>
<g>
	<g>
		<path d="M279.1,386.5c-3.328-3.337-8.738-3.337-12.066,0L232.9,420.634c-3.337,3.337-3.337,8.73,0,12.066
			c1.664,1.664,3.849,2.5,6.033,2.5c2.185,0,4.369-0.836,6.033-2.5l34.133-34.133C282.436,395.23,282.436,389.837,279.1,386.5z"/>
	</g>
</g>
<g>
	<g>
		<path d="M279.1,420.634L244.966,386.5c-3.328-3.337-8.738-3.337-12.066,0c-3.337,3.337-3.337,8.73,0,12.066l34.133,34.133
			c1.664,1.664,3.849,2.5,6.033,2.5c2.185,0,4.369-0.836,6.033-2.5C282.436,429.363,282.436,423.97,279.1,420.634z"/>
	</g>
</g>
<g>
	<g>
		<path d="M432.7,386.5c-3.328-3.337-8.738-3.337-12.066,0L386.5,420.634c-3.337,3.337-3.337,8.73,0,12.066
			c1.664,1.664,3.849,2.5,6.033,2.5c2.185,0,4.369-0.836,6.033-2.5l34.133-34.133C436.036,395.23,436.036,389.837,432.7,386.5z"/>
	</g>
</g>
<g>
	<g>
		<path d="M432.7,420.634L398.566,386.5c-3.328-3.337-8.738-3.337-12.066,0c-3.337,3.337-3.337,8.73,0,12.066l34.133,34.133
			c1.664,1.664,3.849,2.5,6.033,2.5s4.369-0.836,6.033-2.5C436.036,429.363,436.036,423.97,432.7,420.634z"/>
	</g>
</g>
<g>
</g>
<g>
</g>
<g>
</g>
<g>
</g>
<g>
</g>
<g>
</g>
<g>
</g>
<g>
</g>
<g>
</g>
<g>
</g>
<g>
</g>
<g>
</g>
<g>
</g>
<g>
</g>
<g>
</g>
</svg>
